<?xml version="1.0" encoding="UTF-8" standalone="no"?>
<!-- Created with Inkscape (http://www.inkscape.org/) -->

<svg
   xmlns:dc="http://purl.org/dc/elements/1.1/"
   xmlns:cc="http://creativecommons.org/ns#"
   xmlns:rdf="http://www.w3.org/1999/02/22-rdf-syntax-ns#"
   xmlns:svg="http://www.w3.org/2000/svg"
   xmlns="http://www.w3.org/2000/svg"
   xmlns:sodipodi="http://sodipodi.sourceforge.net/DTD/sodipodi-0.dtd"
   xmlns:inkscape="http://www.inkscape.org/namespaces/inkscape"
   version="1.1"
   width="12"
   height="12"
   id="svg4764"
   inkscape:version="0.91 r13725"
   sodipodi:docname="college.svg">
  <sodipodi:namedview
     pagecolor="#ffffff"
     bordercolor="#666666"
     borderopacity="1"
     objecttolerance="10"
     gridtolerance="10"
     guidetolerance="10"
     inkscape:pageopacity="0"
     inkscape:pageshadow="2"
     inkscape:window-width="640"
     inkscape:window-height="480"
     id="namedview11"
     showgrid="false"
     inkscape:zoom="19.666667"
     inkscape:cx="6"
     inkscape:cy="6"
     inkscape:window-x="0"
     inkscape:window-y="0"
     inkscape:window-maximized="0"
     inkscape:current-layer="svg4764" />
  <defs
     id="defs4766" />
  <metadata
     id="metadata4769">
    <rdf:RDF>
      <cc:Work
         rdf:about="">
        <dc:format>image/svg+xml</dc:format>
        <dc:type
           rdf:resource="http://purl.org/dc/dcmitype/StillImage" />
        <dc:title></dc:title>
      </cc:Work>
    </rdf:RDF>
  </metadata>
  <g
     transform="translate(0,-1040.3622)"
     id="layer1"
     style="fill:#217821">
    <g
       transform="translate(-282,-33.999983)"
       id="college-12"
       style="display:inline;fill:#217821">
      <g
         transform="translate(-1,-1)"
         id="g21628"
         style="fill:#217821">
        <path
           d="m 289.5,1077.3622 -4.5,2.5 4.5,2.5 2.5,-1.5 0,1.25 -2.5,1.25 -2.5,-1.25 0,1.25 2.5,1.5 2.5,-1.5 c 0,0.5 1,0.5 1,0.5 l 0,-0.5 c 0,0 -0.5,-0.029 -0.5,-0.5 l 0,-2 1.5,-1 z"
           inkscape:connector-curvature="0"
           id="path5396"
           style="opacity:0.3;color:#000000;fill:#217821;stroke:#ffffff;stroke-width:2;stroke-linecap:round;stroke-linejoin:round;stroke-miterlimit:4;stroke-opacity:1;stroke-dasharray:none;stroke-dashoffset:0;marker:none;visibility:visible;display:inline;overflow:visible;enable-background:accumulate" />
        <path
           d="m 289.5,1077.3622 -4.5,2.5 4.5,2.5 2.5,-1.5 0,1.25 -2.5,1.25 -2.5,-1.25 0,1.25 2.5,1.5 2.5,-1.5 c 0,0.5 1,0.5 1,0.5 l 0,-0.5 c 0,0 -0.5,-0.029 -0.5,-0.5 l 0,-2 1.5,-1 z"
           inkscape:connector-curvature="0"
           id="path7442-3"
           style="color:#000000;fill:#217821;fill-opacity:1;stroke:none;stroke-width:2;marker:none;visibility:visible;display:inline;overflow:visible;enable-background:accumulate" />
      </g>
    </g>
  </g>
  <rect
     width="12"
     height="12"
     x="0"
     y="0"
     id="canvas"
     style="fill:none;stroke:none;visibility:hidden" />
</svg>
