<?xml version="1.0" encoding="UTF-8" standalone="no"?>
<!-- Created with Inkscape (http://www.inkscape.org/) -->

<svg
   xmlns:dc="http://purl.org/dc/elements/1.1/"
   xmlns:cc="http://creativecommons.org/ns#"
   xmlns:rdf="http://www.w3.org/1999/02/22-rdf-syntax-ns#"
   xmlns:svg="http://www.w3.org/2000/svg"
   xmlns="http://www.w3.org/2000/svg"
   xmlns:sodipodi="http://sodipodi.sourceforge.net/DTD/sodipodi-0.dtd"
   xmlns:inkscape="http://www.inkscape.org/namespaces/inkscape"
   version="1.1"
   width="12"
   height="12"
   id="svg4764"
   inkscape:version="0.91 r13725"
   sodipodi:docname="hospital-12.svg">
  <sodipodi:namedview
     pagecolor="#ffffff"
     bordercolor="#666666"
     borderopacity="1"
     objecttolerance="10"
     gridtolerance="10"
     guidetolerance="10"
     inkscape:pageopacity="0"
     inkscape:pageshadow="2"
     inkscape:window-width="640"
     inkscape:window-height="480"
     id="namedview12"
     showgrid="false"
     inkscape:zoom="19.666667"
     inkscape:cx="6"
     inkscape:cy="6"
     inkscape:window-x="0"
     inkscape:window-y="0"
     inkscape:window-maximized="0"
     inkscape:current-layer="svg4764" />
  <defs
     id="defs4766" />
  <metadata
     id="metadata4769">
    <rdf:RDF>
      <cc:Work
         rdf:about="">
        <dc:format>image/svg+xml</dc:format>
        <dc:type
           rdf:resource="http://purl.org/dc/dcmitype/StillImage" />
        <dc:title />
      </cc:Work>
    </rdf:RDF>
  </metadata>
  <g
     transform="translate(0,-1040.3622)"
     id="layer1"
     style="fill:#800000">
    <g
       transform="translate(-282,-81.999989)"
       id="hospital-12"
       style="display:inline;fill:#800000">
      <g
         transform="translate(0,-1)"
         id="g5579"
         style="opacity:0.3;color:#000000;fill:#800000;stroke:#ffffff;stroke-width:2;stroke-linecap:butt;stroke-linejoin:miter;stroke-miterlimit:4;stroke-opacity:1;stroke-dasharray:none;stroke-dashoffset:0;marker:none;visibility:visible;display:inline;overflow:visible;enable-background:accumulate">
        <path
           d="m 284,1128.3622 c 0,-0.554 0.446,-1 1,-1 l 2,0 0,-2 c 0,-0.554 0.446,-1 1,-1 l 1,0 c 0.554,0 1,0.446 1,1 l 0,2 2,0 c 0.554,0 1,0.446 1,1 l 0,1 c 0,0.554 -0.446,1 -1,1 l -2,0 0,2 c 0,0.554 -0.446,1 -1,1 l -1,0 c -0.554,0 -1,-0.446 -1,-1 l 0,-2 -2,0 c -0.554,0 -1,-0.446 -1,-1 z"
           inkscape:connector-curvature="0"
           id="path5581"
           style="color:#000000;fill:#800000;stroke:#ffffff;stroke-width:2;stroke-linecap:butt;stroke-linejoin:miter;stroke-miterlimit:4;stroke-opacity:1;stroke-dasharray:none;stroke-dashoffset:0;marker:none;visibility:visible;display:inline;overflow:visible;enable-background:accumulate" />
      </g>
      <g
         transform="translate(0,-1)"
         id="g21645"
         style="fill:#800000">
        <path
           d="m 284,1128.3622 c 0,-0.554 0.446,-1 1,-1 l 2,0 0,-2 c 0,-0.554 0.446,-1 1,-1 l 1,0 c 0.554,0 1,0.446 1,1 l 0,2 2,0 c 0.554,0 1,0.446 1,1 l 0,1 c 0,0.554 -0.446,1 -1,1 l -2,0 0,2 c 0,0.554 -0.446,1 -1,1 l -1,0 c -0.554,0 -1,-0.446 -1,-1 l 0,-2 -2,0 c -0.554,0 -1,-0.446 -1,-1 z"
           inkscape:connector-curvature="0"
           id="path5535"
           style="color:#000000;fill:#800000;fill-opacity:1;stroke:none;stroke-width:2;marker:none;visibility:visible;display:inline;overflow:visible;enable-background:accumulate" />
      </g>
    </g>
  </g>
  <rect
     width="12"
     height="12"
     x="0"
     y="0"
     id="canvas"
     style="fill:none;stroke:none;visibility:hidden" />
</svg>
